<?xml version="1.0" encoding="UTF-8"?>
<svg width="60px" height="60px" viewBox="0 0 60 60" version="1.1" xmlns="http://www.w3.org/2000/svg" xmlns:xlink="http://www.w3.org/1999/xlink">
    <!-- Generator: Sketch 61.2 (89653) - https://sketch.com -->
    <title>Group 4</title>
    <desc>Created with Sketch.</desc>
    <g id="Page-1" stroke="none" stroke-width="1" fill="none" fill-rule="evenodd">
        <g id="Compare-pixels-homepage-design-website-Copy-2" transform="translate(-682.000000, -737.000000)">
            <g id="Group-17" transform="translate(0.000000, 698.000000)">
                <g id="Group-16" transform="translate(682.000000, 39.000000)">
                    <g id="Group-5">
                        <g id="Group-4">
                            <rect id="Rectangle" fill="#FFFFFF" x="0" y="0" width="60" height="60" rx="3"></rect>
                            <path d="M30,11 C37.7319865,11 44,17.3113408 44,25.0967742 C44,32.8822077 37.7319865,39.1935485 30,39.1935485 L30,49 L16,49 L16,24.7903226 L16.0032433,24.7902924 C16.165168,17.1463784 22.3697298,11 30,11 Z M18.1538462,31.6285714 L18.1542899,46.8285714 L27.8461538,46.8285714 L27.8458843,38.6377865 C23.7102576,38.0256033 20.1782239,35.3631835 18.1538462,31.6285714 Z M29.9981536,13.1714286 C23.5525342,13.1714286 18.3123398,18.3584684 18.1538462,24.8131861 L29.9981536,24.8132761 L29.9981536,37.0571429 C36.5436987,37.0571429 41.8461538,31.7080282 41.8461538,25.1142857 C41.8461538,18.5205432 36.5436987,13.1714286 29.9981536,13.1714286 Z" id="Shape" fill="#2D2D2D" fill-rule="nonzero"></path>
                        </g>
                    </g>
                </g>
            </g>
        </g>
    </g>
</svg>