<?xml version="1.0" encoding="UTF-8"?>
<svg width="167px" height="27px" viewBox="0 0 167 27" version="1.1" xmlns="http://www.w3.org/2000/svg" xmlns:xlink="http://www.w3.org/1999/xlink">
    <!-- Generator: Sketch 61.2 (89653) - https://sketch.com -->
    <title>Group 12</title>
    <desc>Created with Sketch.</desc>
    <g id="Page-1" stroke="none" stroke-width="1" fill="none" fill-rule="evenodd">
        <g id="Compare-pixels-homepage" transform="translate(-428.000000, -737.000000)" fill="#FFFFFF" fill-rule="nonzero">
            <g id="Group-12" transform="translate(428.000000, 737.000000)">
                <g id="Pastel-logo-black">
                    <g id="Group" transform="translate(0.000000, 0.450000)">
                        <path d="M9.5,0 C14.7467051,0 19,4.31828582 19,9.64516132 C19,14.9720368 14.7467051,19.2903226 9.5,19.2903226 L9.5,26 L0,26 L0,9.43548389 L0.00220081463,9.43546322 C0.11207831,4.2054168 4.32231665,0 9.5,0 Z M1.29927784,14.5171554 L1.29959381,24.6739428 L8.20030697,24.6739428 L8.20011502,19.2007809 C5.25550358,18.7917141 2.74065698,17.0126595 1.29927784,14.5171554 Z M9.50000003,1.326 C5.03876644,1.326 1.41184867,4.93919074 1.30214978,9.43542117 L9.50000003,9.43548389 L9.50000003,17.9643226 C14.0303956,17.9643226 17.7004062,14.2382337 17.7004062,9.64516132 C17.7004062,5.0520889 14.0303956,1.326 9.50000003,1.326 Z" id="Shape"></path>
                    </g>
                </g>
                <path d="M31.5781818,20.5 L32.9781818,16.8 L38.0381818,16.8 L39.4581818,20.5 L41.0581818,20.5 L36.2581818,8.22 L34.7781818,8.22 L29.9781818,20.5 L31.5781818,20.5 Z M37.4981818,15.42 L33.4981818,15.42 L35.4981818,10.18 L37.4981818,15.42 Z M48.0290909,20.5 L48.0290909,15.58 L51.0490909,15.58 C53.5290909,15.58 55.0890909,14.3 55.0890909,11.9 C55.0890909,9.48 53.5290909,8.22 51.0490909,8.22 L46.4490909,8.22 L46.4490909,20.5 L48.0290909,20.5 Z M51.0090909,14.18 L48.0290909,14.18 L48.0290909,9.6 L51.0090909,9.6 C52.6690909,9.6 53.5290909,10.5 53.5290909,11.9 C53.5290909,13.28 52.6690909,14.18 51.0090909,14.18 Z M58.0545455,20.5 L58.0545455,14.54 C58.3545455,13.5 59.1745455,12.88 60.1145455,12.88 C60.4945455,12.88 60.8745455,12.96 61.1145455,13.12 L61.1145455,11.58 C60.9545455,11.5 60.6345455,11.44 60.2545455,11.44 C59.2745455,11.44 58.4345455,12.02 58.0545455,12.78 L58.0545455,11.62 L56.5545455,11.62 L56.5545455,20.5 L58.0545455,20.5 Z M65.7,20.68 C68.12,20.68 69.78,18.78 69.78,16.06 C69.78,13.34 68.12,11.44 65.7,11.44 C63.26,11.44 61.62,13.34 61.62,16.06 C61.62,18.78 63.26,20.68 65.7,20.68 Z M65.7,19.36 C64.1,19.36 63.14,18 63.14,16.06 C63.14,14.12 64.1,12.76 65.7,12.76 C67.3,12.76 68.26,14.12 68.26,16.06 C68.26,18 67.3,19.36 65.7,19.36 Z M72.1054545,9.9 C72.6454545,9.9 73.0854545,9.46 73.0854545,8.94 C73.0854545,8.4 72.6454545,7.98 72.1054545,7.98 C71.5854545,7.98 71.1454545,8.4 71.1454545,8.94 C71.1454545,9.46 71.5854545,9.9 72.1054545,9.9 Z M70.2854545,24.08 C71.9454545,24.08 72.8654545,23.18 72.8654545,21.52 L72.8654545,11.62 L71.3654545,11.62 L71.3654545,21.42 C71.3654545,22.42 70.9454545,22.78 70.1654545,22.78 C69.9854545,22.78 69.7654545,22.74 69.6454545,22.72 L69.6454545,24 C69.8054545,24.06 70.1054545,24.08 70.2854545,24.08 Z M78.4909091,20.68 C80.4909091,20.68 81.7509091,19.52 82.0709091,17.84 L80.6509091,17.84 C80.4109091,18.84 79.5909091,19.4 78.4909091,19.4 C76.9909091,19.4 75.9309091,18.24 75.9109091,16.34 L82.1909091,16.34 L82.1909091,15.8 C82.1909091,13.22 80.8909091,11.44 78.4509091,11.44 C76.0309091,11.44 74.4109091,13.42 74.4109091,16.08 C74.4109091,18.82 76.0709091,20.68 78.4909091,20.68 Z M80.6709091,15.2 L75.9509091,15.2 C76.1709091,13.64 77.1309091,12.72 78.4709091,12.72 C79.9509091,12.72 80.6509091,13.88 80.6709091,15.2 Z M87.1763636,20.68 C89.1763636,20.68 90.4363636,19.52 90.7363636,17.82 L89.1963636,17.82 C88.9963636,18.78 88.2363636,19.36 87.1763636,19.36 C85.6563636,19.36 84.6563636,18 84.6563636,16.06 C84.6563636,14.12 85.6563636,12.76 87.1763636,12.76 C88.2363636,12.76 88.9963636,13.34 89.1963636,14.3 L90.7363636,14.3 C90.4363636,12.6 89.1763636,11.44 87.1763636,11.44 C84.7963636,11.44 83.1363636,13.3 83.1363636,16.06 C83.1363636,18.82 84.7963636,20.68 87.1763636,20.68 Z M95.1618182,20.68 C95.7018182,20.68 96.2218182,20.56 96.5618182,20.38 L96.5618182,18.98 C96.2618182,19.18 95.8218182,19.34 95.4018182,19.34 C94.6418182,19.34 94.2218182,18.96 94.2218182,18.1 L94.2218182,12.9 L96.3618182,12.9 L96.3618182,11.62 L94.2218182,11.62 L94.2218182,9.28 L92.7218182,9.28 L92.7218182,11.62 L91.2818182,11.62 L91.2818182,12.9 L92.7218182,12.9 L92.7218182,18.26 C92.7218182,19.9 93.7218182,20.68 95.1618182,20.68 Z M106.152727,20.68 C108.752727,20.68 110.152727,18.58 110.152727,16.06 C110.152727,13.56 108.752727,11.44 106.152727,11.44 C105.052727,11.44 104.092727,12.02 103.652727,12.66 L103.652727,7.5 L102.132727,7.5 L102.132727,20.5 L103.652727,20.5 L103.652727,19.46 C104.092727,20.1 105.052727,20.68 106.152727,20.68 Z M105.932727,19.32 C104.992727,19.32 104.112727,18.78 103.652727,17.86 L103.652727,14.26 C104.112727,13.34 104.992727,12.8 105.932727,12.8 C107.632727,12.8 108.632727,14.18 108.632727,16.06 C108.632727,17.94 107.632727,19.32 105.932727,19.32 Z M114.198182,23.9 L118.978182,11.62 L117.418182,11.62 L114.838182,18.62 L112.218182,11.62 L110.598182,11.62 L114.058182,20.56 L112.718182,23.9 L114.198182,23.9 Z M125.889091,20.5 L125.889091,15.58 L128.909091,15.58 C131.389091,15.58 132.949091,14.3 132.949091,11.9 C132.949091,9.48 131.389091,8.22 128.909091,8.22 L124.309091,8.22 L124.309091,20.5 L125.889091,20.5 Z M128.869091,14.18 L125.889091,14.18 L125.889091,9.6 L128.869091,9.6 C130.529091,9.6 131.389091,10.5 131.389091,11.9 C131.389091,13.28 130.529091,14.18 128.869091,14.18 Z M136.874545,20.66 C137.934545,20.66 138.874545,20.2 139.214545,19.84 L139.214545,20.5 L140.654545,20.5 L140.654545,14.58 C140.654545,12.64 139.394545,11.44 137.274545,11.44 C135.574545,11.44 134.254545,12.46 133.954545,13.96 L135.434545,13.96 C135.714545,13.14 136.314545,12.74 137.254545,12.74 C138.534545,12.74 139.214545,13.54 139.214545,14.64 L139.214545,15.76 C138.834545,15.42 137.894545,15.04 136.974545,15.04 C135.074545,15.04 133.574545,16.16 133.574545,17.82 C133.574545,19.58 135.074545,20.66 136.874545,20.66 Z M137.134545,19.4 C136.054545,19.4 135.014545,18.9 135.014545,17.82 C135.014545,16.76 136.054545,16.28 137.134545,16.28 C138.054545,16.28 138.954545,16.72 139.214545,17.38 L139.214545,18.3 C138.954545,18.96 138.054545,19.4 137.134545,19.4 Z M145.66,20.68 C147.56,20.68 148.96,19.68 148.96,18 C148.96,16.76 148.22,15.92 146.7,15.52 L144.98,15.1 C144.14,14.86 143.74,14.58 143.74,13.98 C143.74,13.12 144.56,12.7 145.44,12.7 C146.52,12.7 147.14,13.16 147.4,13.96 L148.9,13.96 C148.58,12.4 147.42,11.44 145.46,11.44 C143.66,11.44 142.28,12.48 142.28,14.06 C142.28,15.44 143.16,16.08 144.42,16.4 L146.18,16.86 C147.1,17.1 147.5,17.48 147.5,18.1 C147.5,19 146.74,19.42 145.68,19.42 C144.64,19.42 143.86,18.98 143.58,18.06 L142.02,18.06 C142.3,19.7 143.72,20.68 145.66,20.68 Z M153.445455,20.68 C153.985455,20.68 154.505455,20.56 154.845455,20.38 L154.845455,18.98 C154.545455,19.18 154.105455,19.34 153.685455,19.34 C152.925455,19.34 152.505455,18.96 152.505455,18.1 L152.505455,12.9 L154.645455,12.9 L154.645455,11.62 L152.505455,11.62 L152.505455,9.28 L151.005455,9.28 L151.005455,11.62 L149.565455,11.62 L149.565455,12.9 L151.005455,12.9 L151.005455,18.26 C151.005455,19.9 152.005455,20.68 153.445455,20.68 Z M159.810909,20.68 C161.810909,20.68 163.070909,19.52 163.390909,17.84 L161.970909,17.84 C161.730909,18.84 160.910909,19.4 159.810909,19.4 C158.310909,19.4 157.250909,18.24 157.230909,16.34 L163.510909,16.34 L163.510909,15.8 C163.510909,13.22 162.210909,11.44 159.770909,11.44 C157.350909,11.44 155.730909,13.42 155.730909,16.08 C155.730909,18.82 157.390909,20.68 159.810909,20.68 Z M161.990909,15.2 L157.270909,15.2 C157.490909,13.64 158.450909,12.72 159.790909,12.72 C161.270909,12.72 161.970909,13.88 161.990909,15.2 Z M166.556364,20.5 L166.556364,7.5 L165.056364,7.5 L165.056364,20.5 L166.556364,20.5 Z" id="AProjectbyPastel"></path>
            </g>
        </g>
    </g>
</svg>